<?xml version="1.0" encoding="utf-8"?>
<!-- Generator: Adobe Illustrator 22.1.0, SVG Export Plug-In . SVG Version: 6.00 Build 0)  -->
<svg version="1.1" id="Layer_1" xmlns="http://www.w3.org/2000/svg" xmlns:xlink="http://www.w3.org/1999/xlink" x="0px" y="0px"
	 viewBox="0 0 25 25" style="enable-background:new 0 0 25 25;" xml:space="preserve">
<style type="text/css">
	.st0{fill:#FFFFFF;}
</style>
<g>
	<path class="st0" d="M22.6,13.2L18,14.4l-1.8-1v-1.9l1.7-1l4.6,1.2c0.1,0,0.2,0,0.3,0c0.5,0,0.9-0.3,1-0.8c0.2-0.6-0.2-1.1-0.8-1.3
		L20.6,9l2.3-1.3c0.5-0.3,0.7-0.9,0.4-1.5c-0.3-0.5-0.9-0.7-1.5-0.4l-2.3,1.3l0.7-2.5c0.2-0.6-0.2-1.1-0.8-1.3
		c-0.6-0.1-1.1,0.2-1.3,0.8L17,8.7l-1.7,1l-1.7-1v-2l3.3-3.3c0.4-0.4,0.4-1.1,0-1.5c-0.4-0.4-1.1-0.4-1.5,0l-1.8,1.8V1.1
		c0-0.6-0.5-1.1-1.1-1.1c-0.6,0-1.1,0.5-1.1,1.1v2.7L9.6,1.9c-0.4-0.4-1.1-0.4-1.5,0C7.7,2.3,7.7,3,8.1,3.4l3.3,3.3v2L9.8,9.7L8,8.7
		L6.8,4.2C6.7,3.6,6.1,3.3,5.5,3.4C5,3.6,4.6,4.1,4.8,4.7l0.7,2.5L3.1,5.9C2.6,5.6,2,5.8,1.7,6.3C1.4,6.8,1.6,7.4,2.1,7.7L4.4,9
		L1.9,9.7C1.3,9.9,1,10.5,1.1,11c0.1,0.5,0.6,0.8,1,0.8c0.1,0,0.2,0,0.3,0L7,10.5l1.7,1l0,1.9l-1.8,1l-4.5-1.2
		c-0.6-0.1-1.1,0.2-1.3,0.8c-0.2,0.6,0.2,1.1,0.8,1.3L4.4,16l-2.3,1.3c-0.5,0.3-0.7,0.9-0.4,1.5c0.2,0.3,0.6,0.5,0.9,0.5
		c0.2,0,0.4,0,0.5-0.1l2.3-1.3l-0.7,2.5c-0.2,0.6,0.2,1.1,0.8,1.3c0.1,0,0.2,0,0.3,0c0.5,0,0.9-0.3,1-0.8l1.2-4.6l1.7-1l1.6,0.9v2.1
		l-3.3,3.3c-0.4,0.4-0.4,1.1,0,1.5c0.2,0.2,0.5,0.3,0.8,0.3c0.3,0,0.5-0.1,0.8-0.3l1.8-1.8v2.7c0,0.6,0.5,1.1,1.1,1.1
		c0.6,0,1.1-0.5,1.1-1.1v-2.7l1.8,1.8c0.2,0.2,0.5,0.3,0.8,0.3c0.3,0,0.5-0.1,0.8-0.3c0.4-0.4,0.4-1.1,0-1.5l-3.3-3.3v-2l1.7-1
		l1.7,1l1.2,4.6c0.1,0.5,0.6,0.8,1,0.8c0.1,0,0.2,0,0.3,0c0.6-0.2,0.9-0.7,0.8-1.3l-0.7-2.5l2.3,1.3c0.2,0.1,0.4,0.1,0.5,0.1
		c0.4,0,0.7-0.2,0.9-0.5c0.3-0.5,0.1-1.2-0.4-1.5L20.6,16l2.5-0.7c0.6-0.2,0.9-0.7,0.8-1.3C23.7,13.4,23.1,13.1,22.6,13.2z
		 M14.1,13.4l-1.6,0.9l-1.6-0.9l0-1.9l1.6-0.9l1.6,1V13.4z"/>
</g>
</svg>
