<?xml version="1.0" encoding="utf-8"?>
<!-- Generator: Adobe Illustrator 22.1.0, SVG Export Plug-In . SVG Version: 6.00 Build 0)  -->
<svg version="1.1" id="Layer_1" xmlns="http://www.w3.org/2000/svg" xmlns:xlink="http://www.w3.org/1999/xlink" x="0px" y="0px"
	 viewBox="0 0 25 25" style="enable-background:new 0 0 25 25;" xml:space="preserve">
<style type="text/css">
	.st0{fill:#FFFFFF;}
</style>
<g>
	<path class="st0" d="M12.5,5.8c-3.7,0-6.7,3-6.7,6.7s3,6.7,6.7,6.7s6.7-3,6.7-6.7S16.2,5.8,12.5,5.8z M12.5,17.3
		c-2.6,0-4.8-2.1-4.8-4.8s2.1-4.8,4.8-4.8s4.8,2.1,4.8,4.8S15.1,17.3,12.5,17.3z M11.5,2.9V1c0-0.5,0.4-1,1-1s1,0.4,1,1v1.9
		c0,0.5-0.4,1-1,1S11.5,3.4,11.5,2.9z M13.5,22.1V24c0,0.5-0.4,1-1,1s-1-0.4-1-1v-1.9c0-0.5,0.4-1,1-1S13.5,21.6,13.5,22.1z
		 M25,12.5c0,0.5-0.4,1-1,1h-1.9c-0.5,0-1-0.4-1-1s0.4-1,1-1H24C24.6,11.5,25,12,25,12.5z M2.9,13.5H1c-0.5,0-1-0.4-1-1s0.4-1,1-1
		h1.9c0.5,0,1,0.4,1,1S3.4,13.5,2.9,13.5z M18.6,6.4c-0.4-0.4-0.4-1,0-1.4L20,3.7c0.4-0.4,1-0.4,1.4,0c0.4,0.4,0.4,1,0,1.4L20,6.4
		C19.6,6.8,19,6.8,18.6,6.4z M6.4,18.6c0.4,0.4,0.4,1,0,1.4L5,21.3c-0.4,0.4-1,0.4-1.4,0c-0.4-0.4-0.4-1,0-1.4L5,18.6
		C5.4,18.2,6,18.2,6.4,18.6z M21.3,20c0.4,0.4,0.4,1,0,1.4c-0.4,0.4-1,0.4-1.4,0L18.6,20c-0.4-0.4-0.4-1,0-1.4c0.4-0.4,1-0.4,1.4,0
		L21.3,20z M3.7,5c-0.4-0.4-0.4-1,0-1.4c0.4-0.4,1-0.4,1.4,0L6.4,5c0.4,0.4,0.4,1,0,1.4C6,6.8,5.4,6.8,5,6.4L3.7,5z"/>
</g>
</svg>
