<?xml version="1.0" encoding="utf-8"?>
<!-- Generator: Adobe Illustrator 22.1.0, SVG Export Plug-In . SVG Version: 6.00 Build 0)  -->
<svg version="1.1" id="Layer_1" xmlns="http://www.w3.org/2000/svg" xmlns:xlink="http://www.w3.org/1999/xlink" x="0px" y="0px"
	 viewBox="0 0 25 25" style="enable-background:new 0 0 25 25;" xml:space="preserve">
<style type="text/css">
	.st0{fill:#FFFFFF;}
</style>
<g>
	<g>
		<g>
			<path class="st0" d="M17,14.7l-3.5-2.6V6.8c0-0.5-0.4-1-1-1s-1,0.4-1,1v5.8c0,0.3,0.1,0.6,0.4,0.8l3.9,2.9
				c0.2,0.1,0.4,0.2,0.6,0.2c0.3,0,0.6-0.1,0.8-0.4C17.5,15.6,17.4,15,17,14.7z"/>
		</g>
	</g>
	<g>
		<g>
			<path class="st0" d="M12.5,0C5.6,0,0,5.6,0,12.5S5.6,25,12.5,25S25,19.4,25,12.5S19.4,0,12.5,0z M12.5,23.1
				c-5.8,0-10.6-4.7-10.6-10.6S6.7,1.9,12.5,1.9c5.8,0,10.6,4.7,10.6,10.6S18.3,23.1,12.5,23.1z"/>
		</g>
	</g>
</g>
</svg>
