<?xml version="1.0" encoding="utf-8"?>
<!-- Generator: Adobe Illustrator 22.1.0, SVG Export Plug-In . SVG Version: 6.00 Build 0)  -->
<svg version="1.1" id="Layer_1" xmlns="http://www.w3.org/2000/svg" xmlns:xlink="http://www.w3.org/1999/xlink" x="0px" y="0px"
	 viewBox="0 0 25 25" style="enable-background:new 0 0 25 25;" xml:space="preserve">
<style type="text/css">
	.st0{fill:#FFFFFF;}
</style>
<g>
	<g>
		<g>
			<path class="st0" d="M14.8,2.8c-0.6-0.8-1.1-1.6-1.6-2.3c-0.1-0.1-0.2-0.2-0.3-0.3c-0.4-0.3-1-0.1-1.2,0.3
				c-0.4,0.7-1,1.5-1.6,2.3C7.5,6.7,3.5,12.6,3.5,16c0,2.5,1,4.7,2.6,6.4C7.8,24,10,25,12.5,25s4.7-1,6.4-2.6
				c1.6-1.6,2.6-3.9,2.6-6.4C21.5,12.6,17.5,6.7,14.8,2.8z M17.6,21.1c-1.3,1.3-3.1,2.1-5.1,2.1s-3.8-0.8-5.1-2.1
				C6,19.8,5.3,18,5.3,16c0-2.9,3.8-8.5,6.4-12.3c0.3-0.4,0.6-0.9,0.8-1.3c0.3,0.4,0.5,0.8,0.8,1.3c2.5,3.8,6.4,9.4,6.4,12.3
				C19.7,18,18.9,19.8,17.6,21.1z"/>
		</g>
	</g>
	<g>
		<g>
			<path class="st0" d="M17.8,15.4c-0.5,0-0.9,0.3-0.9,0.8c0,0.7-0.3,1.5-0.6,2.1c-0.4,0.6-0.9,1.2-1.6,1.5
				c-0.4,0.2-0.6,0.8-0.3,1.2c0.3,0.5,0.8,0.6,1.2,0.4c0.9-0.5,1.7-1.3,2.2-2.1c0.5-0.8,0.8-1.9,0.9-2.9
				C18.6,15.8,18.2,15.4,17.8,15.4z"/>
		</g>
	</g>
</g>
</svg>
